<?xml version="1.0" encoding="UTF-8" standalone="no"?>
<svg
   xmlns:dc="http://purl.org/dc/elements/1.1/"
   xmlns:cc="http://creativecommons.org/ns#"
   xmlns:rdf="http://www.w3.org/1999/02/22-rdf-syntax-ns#"
   xmlns:svg="http://www.w3.org/2000/svg"
   xmlns="http://www.w3.org/2000/svg"
   viewBox="0 0 793.70135 1122.52"
   height="1122.52"
   width="793.70135"
   xml:space="preserve"
   id="svg2"
   version="1.1"><metadata
     id="metadata8"><rdf:RDF><cc:Work
         rdf:about=""><dc:format>image/svg+xml</dc:format><dc:type
           rdf:resource="http://purl.org/dc/dcmitype/StillImage" /></cc:Work></rdf:RDF></metadata><defs
     id="defs6"><clipPath
       id="clipPath22"
       clipPathUnits="userSpaceOnUse"><path
         id="path20"
         d="M 0,841.89 H 595.276 V 0 H 0 Z" /></clipPath><clipPath
       id="clipPath34"
       clipPathUnits="userSpaceOnUse"><path
         id="path32"
         d="M 0,841.89 H 595.276 V 0 H 0 Z" /></clipPath></defs><g
     transform="matrix(1.3333333,0,0,-1.3333333,0,1122.52)"
     id="g10"><text
       id="text14"
       style="font-variant:normal;font-weight:normal;font-stretch:normal;font-size:65.4213028px;font-family:'Myriad Pro';-inkscape-font-specification:MyriadPro-Regular;writing-mode:lr-tb;fill:#666b56;fill-opacity:1;fill-rule:nonzero;stroke:none"
       transform="matrix(1,0,0,-0.96957413,159.8789,159.0273)"><tspan
         id="tspan12"
         y="0"
         x="0 34.477024 69.935371 100.7488 122.01073 157.92702 190.57225 219.881 251.41406">PhytoScan</tspan></text>
<g
       id="g16"><g
         clip-path="url(#clipPath22)"
         id="g18"><g
           transform="translate(378.2,252.25)"
           id="g24"><path
             id="path26"
             style="fill:#666b56;fill-opacity:1;fill-rule:nonzero;stroke:none"
             d="M 0,0 C 8.987,9.163 14.443,17.334 15.12,18.36 29.408,40 27.07,49.617 39.96,68.04 51.449,84.46 58.2,94.11 69.959,98.023 c 4.56,1.518 17.497,4.711 20.827,14.279 0.083,0.237 0.132,0.354 0.172,0.53 1.326,5.805 -12.212,14.752 -39.217,32.755 -1.712,1.141 -5.399,3.528 -9.969,3.118 -4.736,-0.425 -8.013,-3.637 -9.255,-4.845 C 0.8,113.022 -15.058,97.602 -52.103,42.546 c -0.967,-1.438 -3.544,-5.234 -3.119,-9.97 0.417,-4.641 3.508,-7.861 4.845,-9.255 27.418,-28.586 32.205,-34.528 39.216,-32.754 C -8.623,-8.791 -5.749,-5.861 0,0" /></g></g></g><g
       id="g28"><g
         clip-path="url(#clipPath34)"
         id="g30"><g
           transform="translate(298.1784,354.6822)"
           id="g36"><path
             id="path38"
             style="fill:#f7eee7;fill-opacity:1;fill-rule:nonzero;stroke:none"
             d="m 0,0 h -91.44 c -10.736,0 -19.44,8.704 -19.44,19.44 V 219.6 c 0.353,2.685 1.657,9.926 7.2,12.96 1.673,0.916 2.714,0.891 10.44,1.08 12.873,0.315 16.771,0.549 18.057,-1.798 0.874,-1.597 -0.115,-3.195 1.383,-5.402 1.005,-1.482 2.456,-2.242 3.43,-2.639 2.51,0.068 6.471,0.147 11.337,0.115 5.904,-0.038 10.288,-0.088 13.595,-0.135 9.959,-0.139 7.956,0.026 11.159,-0.067 9.952,-0.289 12.422,-1.066 14.839,0.926 2.61,2.151 1.13,4.212 3.6,6.84 2.27,2.415 4.789,2.024 19.8,2.16 7.072,0.064 9.383,0.177 11.593,-1.705 2.614,-2.227 3.227,-5.66 3.391,-7.685 C 19.109,155.98 19.275,87.71 19.44,19.44 19.44,8.704 10.736,0 0,0" /></g><g
           transform="translate(298.1784,354.6822)"
           id="g40"><path
             id="path42"
             style="fill:none;stroke:#666b56;stroke-width:7;stroke-linecap:butt;stroke-linejoin:miter;stroke-miterlimit:10;stroke-dasharray:none;stroke-opacity:1"
             d="m 0,0 h -91.44 c -10.736,0 -19.44,8.704 -19.44,19.44 V 219.6 c 0.353,2.685 1.657,9.926 7.2,12.96 1.673,0.916 2.714,0.891 10.44,1.08 12.873,0.315 16.771,0.549 18.057,-1.798 0.874,-1.597 -0.115,-3.195 1.383,-5.402 1.005,-1.482 2.456,-2.242 3.43,-2.639 2.51,0.068 6.471,0.147 11.337,0.115 5.904,-0.038 10.288,-0.088 13.595,-0.135 9.959,-0.139 7.956,0.026 11.159,-0.067 9.952,-0.289 12.422,-1.066 14.839,0.926 2.61,2.151 1.13,4.212 3.6,6.84 2.27,2.415 4.789,2.024 19.8,2.16 7.072,0.064 9.383,0.177 11.593,-1.705 2.614,-2.227 3.227,-5.66 3.391,-7.685 C 19.109,155.98 19.275,87.71 19.44,19.44 19.44,8.704 10.736,0 0,0 Z" /></g><g
           transform="translate(228.7577,446.5311)"
           id="g44"><path
             id="path46"
             style="fill:#666b56;fill-opacity:1;fill-rule:nonzero;stroke:none"
             d="m 0,0 c 7.162,-5.287 14.323,-10.575 21.485,-15.862 4.145,-3.061 8.139,3.879 4.037,6.907 C 18.361,-3.667 11.199,1.62 4.038,6.908 -0.108,9.968 -4.102,3.028 0,0" /></g><g
           transform="translate(247.64,492.4481)"
           id="g48"><path
             id="path50"
             style="fill:#666b56;fill-opacity:1;fill-rule:nonzero;stroke:none"
             d="m 0,0 v -23.758 c 0,-5.148 8,-5.156 8,0 V 0 C 8,5.148 0,5.156 0,0" /></g><g
           transform="translate(257.1491,448.7439)"
           id="g52"><path
             id="path54"
             style="fill:#666b56;fill-opacity:1;fill-rule:nonzero;stroke:none"
             d="m 0,0 c 3.203,3.829 7.025,6.646 11.614,8.611 1.986,0.85 2.429,3.773 1.435,5.472 C 11.847,16.138 9.57,16.372 7.576,15.519 2.454,13.326 -2.082,9.929 -5.657,5.657 -8.939,1.734 -3.309,-3.955 0,0" /></g><g
           transform="translate(204.4051,494.5366)"
           id="g56"><path
             id="path58"
             style="fill:#666b56;fill-opacity:1;fill-rule:nonzero;stroke:none"
             d="m 0,0 c 3.216,0.898 7.008,0.025 9.113,-2.742 1.317,-1.733 3.433,-2.596 5.472,-1.435 1.704,0.97 2.74,3.757 1.435,5.473 C 11.722,6.949 4.844,9.661 -2.127,7.714 -7.078,6.331 -4.975,-1.389 0,0" /></g><g
           transform="translate(204.4012,510.3842)"
           id="g60"><path
             id="path62"
             style="fill:#666b56;fill-opacity:1;fill-rule:nonzero;stroke:none"
             d="M 0,0 C 0.317,0.092 1.025,0.158 0.325,0.125 0.505,0.133 1.632,0.015 1.205,0.121 0.488,0.299 2.2,-0.232 1.555,0.012 0.984,0.227 2.605,-0.69 1.787,-0.055 c 1.65,-1.28 4.071,-1.729 5.657,0 1.314,1.431 1.766,4.287 0,5.656 C 4.658,7.763 1.35,8.724 -2.127,7.714 -4.135,7.131 -5.592,4.869 -4.92,2.794 -4.261,0.755 -2.153,-0.625 0,0" /></g><g
           transform="translate(283.9112,506.2419)"
           id="g64"><path
             id="path66"
             style="fill:#666b56;fill-opacity:1;fill-rule:nonzero;stroke:none"
             d="m 0,0 c 3.476,4.177 8.624,6.705 14.152,5.916 5.035,-0.719 7.211,6.989 2.126,7.715 C 7.996,14.813 -0.212,12.199 -5.657,5.657 -8.928,1.727 -3.298,-3.963 0,0" /></g><g
           transform="translate(289.0928,527.2325)"
           id="g68"><path
             id="path70"
             style="fill:#666b56;fill-opacity:1;fill-rule:nonzero;stroke:none"
             d="m 0,0 c 2.862,0.375 5.724,0.751 8.587,1.126 2.141,0.281 4,1.638 4,4 0,1.943 -1.843,4.283 -4,4 C 5.724,8.751 2.862,8.375 0,8 -2.141,7.719 -4,6.363 -4,4 -4,2.057 -2.157,-0.283 0,0" /></g><g
           transform="translate(251.9985,460.0379)"
           id="g72"><path
             id="path74"
             style="fill:none;stroke:#666b56;stroke-width:8;stroke-linecap:butt;stroke-linejoin:miter;stroke-miterlimit:10;stroke-dasharray:none;stroke-opacity:1"
             d="m 0,0 c -1.882,1.797 -4.393,4.368 -7.078,7.692 -2.967,3.673 -5.34,6.61 -7.2,10.56 -0.983,2.085 -5.476,11.625 -2.4,21.6 0.512,1.661 2.395,4.963 6.24,11.52 1.322,2.255 2.801,4.384 5.76,8.64 2.897,4.169 3.456,4.724 4.32,4.8 2.175,0.191 3.406,-2.914 9.12,-10.08 3.646,-4.574 3.441,-3.681 4.8,-5.76 4.478,-6.854 4.763,-13.581 4.8,-14.88 0.062,-2.189 -0.106,-5.598 -1.44,-9.6" /></g><g
           transform="translate(252.2612,434.1226)"
           id="g76"><path
             id="path78"
             style="fill:none;stroke:#666b56;stroke-width:8;stroke-linecap:butt;stroke-linejoin:miter;stroke-miterlimit:10;stroke-dasharray:none;stroke-opacity:1"
             d="m 0,0 c -2.523,-1.321 -7.846,-3.617 -14.541,-2.873 -6.098,0.678 -10.221,3.532 -13.44,5.76 -2.567,1.777 -6.232,4.37 -9.12,9.12 -1.962,3.227 -2.592,5.85 -3.84,11.04 -1.622,6.745 -2.432,10.117 -0.978,12.005 2.025,2.627 6.597,2.187 14.418,1.435 5.773,-0.555 8.662,-0.8 12,-2.4 3.721,-1.783 8.936,-5.546 12.001,-11.521 2.124,-4.142 2.412,-7.78 5.63,-9.056 1.179,-0.467 2.48,-0.51 4.428,-0.573 2.847,-0.092 5.059,0.283 6.261,0.51 7.352,1.391 11.44,2.086 15.84,4.8 2.252,1.39 7.66,4.822 11.04,11.52 4.434,8.79 4.268,21.007 -0.48,23.52 -1.019,0.54 -1.693,0.337 -7.68,-0.48 C 22.88,51.626 21.731,51.7 20.019,51.367 11.357,49.685 3.678,40.585 -0.367,35.028" /></g><g
           transform="translate(209.253,357.09)"
           id="g80"><path
             id="path82"
             style="fill:none;stroke:#666b56;stroke-width:8;stroke-linecap:butt;stroke-linejoin:miter;stroke-miterlimit:10;stroke-dasharray:none;stroke-opacity:1"
             d="m 0,0 c 1.06,3.612 3.184,9.152 7.583,14.703 1.601,2.021 4.935,5.799 10.139,9.243 1.626,1.076 3.446,2.107 5.5,3.045 1.8,0.823 8.375,3.673 17.535,3.95 2.186,0.066 10.176,0.157 19.43,-3.511 2.818,-1.117 5.269,-2.39 7.388,-3.692 1.019,-0.625 4.925,-3.063 9.199,-7.28 C 82.443,10.865 86.092,4.781 88.385,0" /></g><g
           transform="translate(252.5994,388.0281)"
           id="g84"><path
             id="path86"
             style="fill:none;stroke:#666b56;stroke-width:8;stroke-linecap:butt;stroke-linejoin:miter;stroke-miterlimit:10;stroke-dasharray:none;stroke-opacity:1"
             d="m 0,0 c -0.294,39.674 -0.423,55.211 -0.479,60.696 -0.059,5.648 -0.122,11.314 -0.122,11.314 -0.026,2.362 -0.077,6.807 -0.104,9.112" /></g><g
           transform="translate(273.96,333.39)"
           id="g88"><path
             id="path90"
             style="fill:#f7eee7;fill-opacity:1;fill-rule:nonzero;stroke:none"
             d="M 0,0 C 21.266,-15.887 42.531,-31.773 63.797,-47.66" /></g><g
           transform="translate(271.9411,329.9361)"
           id="g92"><path
             id="path94"
             style="fill:#666b56;fill-opacity:1;fill-rule:nonzero;stroke:none"
             d="m 0,0 c 21.266,-15.887 42.531,-31.773 63.797,-47.66 4.126,-3.083 8.119,3.859 4.038,6.908 C 46.569,-24.866 25.303,-8.979 4.038,6.908 -0.089,9.99 -4.081,3.049 0,0" /></g><g
           transform="translate(0,841.89)"
           id="g96"><path
             id="path98"
             style="fill:#fcfcf5;fill-opacity:1;fill-rule:nonzero;stroke:none"
             d="M 0,0 Z" /></g><g
           transform="translate(0,841.89)"
           id="g100"><path
             id="path102"
             style="fill:none;stroke:#666b56;stroke-width:7;stroke-linecap:butt;stroke-linejoin:miter;stroke-miterlimit:10;stroke-dasharray:none;stroke-opacity:1"
             d="M 0,0 V 0" /></g><g
           transform="translate(164.28,441.33)"
           id="g104"><path
             id="path106"
             style="fill:none;stroke:#666b56;stroke-width:7;stroke-linecap:butt;stroke-linejoin:miter;stroke-miterlimit:10;stroke-dasharray:none;stroke-opacity:1"
             d="m 0,0 c -2.924,2.784 -5.65,4.717 -7.68,6 -2.596,1.64 -4.607,2.886 -7.626,3.593 -1.379,0.323 -3.478,0.803 -6.121,0.381 -0.477,-0.076 -4.232,-0.718 -7.205,-3.372 -5.964,-5.324 -4.773,-15.168 -4.474,-17.64 0.978,-8.074 5.379,-13.295 6.706,-14.826 0.577,-0.666 1.148,-1.26 1.7,-1.79 1.712,-1.647 3.847,-3.105 3.963,-3.184 2.127,-1.433 10.071,-6.723 21.016,-13.846" /></g><g
           transform="translate(380.28,433.8834)"
           id="g108"><path
             id="path110"
             style="fill:#f7eee7;fill-opacity:1;fill-rule:nonzero;stroke:none"
             d="M 0,0 33.416,-35.115" /></g><g
           transform="translate(377.4516,431.055)"
           id="g112"><path
             id="path114"
             style="fill:#666b56;fill-opacity:1;fill-rule:nonzero;stroke:none"
             d="m 0,0 33.416,-35.115 c 3.556,-3.737 9.207,1.926 5.657,5.657 L 5.657,5.657 C 2.101,9.394 -3.55,3.731 0,0" /></g><g
           transform="translate(373.7315,523.7664)"
           id="g116"><path
             id="path118"
             style="fill:#666b56;fill-opacity:1;fill-rule:nonzero;stroke:none"
             d="m 0,0 c -0.09,-19.161 -0.181,-38.322 -0.271,-57.482 -0.04,-8.446 -0.75,-17.159 0.064,-25.567 0.588,-6.081 2.773,-11.046 8.615,-13.507 4.738,-1.995 6.807,5.743 2.127,7.715 -4.662,1.963 -2.889,13.833 -2.872,17.484 l 0.113,23.785 C 7.85,-31.714 7.925,-15.857 8,0 8.024,5.149 0.024,5.155 0,0" /></g><g
           transform="translate(337.7569,503.97)"
           id="g120"><path
             id="path122"
             style="fill:none;stroke:#666b56;stroke-width:8;stroke-linecap:butt;stroke-linejoin:miter;stroke-miterlimit:10;stroke-dasharray:none;stroke-opacity:1"
             d="m 0,0 c 0.837,3.312 2.839,9.051 7.92,13.876 12.311,11.692 30.609,6.538 31.68,6.218" /></g><g
           transform="translate(167.16,496.8918)"
           id="g124"><path
             id="path126"
             style="fill:none;stroke:#666b56;stroke-width:7;stroke-linecap:butt;stroke-linejoin:miter;stroke-miterlimit:10;stroke-dasharray:none;stroke-opacity:1"
             d="m 0,0 c -10.105,9.842 -19.268,16.009 -24.545,17.327 -3.307,0.826 -6.121,0.381 -6.121,0.381 -0.477,-0.076 -4.232,-0.719 -7.205,-3.372 -5.964,-5.324 -4.772,-15.168 -4.473,-17.64 0.977,-8.074 5.379,-13.296 6.705,-14.826 0.58,-0.669 1.153,-1.265 1.708,-1.799 1.716,-1.648 3.852,-3.105 3.956,-3.175 2.257,-1.519 12.824,-8.479 27.374,-17.897" /></g><g
           transform="translate(167.16,564.09)"
           id="g128"><path
             id="path130"
             style="fill:none;stroke:#666b56;stroke-width:7;stroke-linecap:butt;stroke-linejoin:miter;stroke-miterlimit:10;stroke-dasharray:none;stroke-opacity:1"
             d="m 0,0 c -2.444,2.624 -7.572,7.567 -14.205,9.863 -2.882,0.997 -4.797,1.064 -6.052,0.991 -0.482,-0.028 -4.283,-0.292 -7.506,-2.635 -6.466,-4.701 -6.265,-14.615 -6.215,-17.104 0.165,-8.131 4.023,-13.767 5.19,-15.422 1.916,-2.717 3.843,-4.413 5.138,-5.515 7.744,-6.595 11.16,-9.084 11.194,-9.109 h 10e-4 C -8.304,-42.274 -4.152,-45.617 0,-48.96" /></g><g
           transform="translate(298.5469,333.39)"
           id="g132"><path
             id="path134"
             style="fill:none;stroke:#666b56;stroke-width:8;stroke-linecap:butt;stroke-linejoin:miter;stroke-miterlimit:10;stroke-dasharray:none;stroke-opacity:1"
             d="m 0,0 h -92.177 c -21.655,0 -39.21,17.555 -39.21,39.21 v 198 c 0,21.655 17.555,39.21 39.21,39.21 H 0 c 21.655,0 39.21,-17.555 39.21,-39.21 v -198 C 39.21,17.555 21.655,0 0,0 Z" /></g></g></g></g></svg>